<svg width="159" height="15" viewBox="0 0 159 15" fill="none" xmlns="http://www.w3.org/2000/svg">
<path fill-rule="evenodd" clip-rule="evenodd" d="M156.62 9.39143V11.7008H147.019V0H156.62V2.38635H159V9.39143H156.62ZM154.16 2.46332H151.78V9.46841H154.16V2.46332ZM132.578 0.0769778H142.179V2.46332H137.418V4.77269H142.179V7.08206H137.418V9.39143H142.179V11.7008H132.578V0.0769778ZM125.357 11.7778H120.517V2.46332H118.137V0.0769778H127.738V2.46332H125.357V11.7778ZM108.536 0.0769778H113.376V11.7778H108.536V0.0769778ZM98.8556 9.39143H96.4752V7.08206H94.0949V11.7778H89.2547V0.0769778H94.0949V2.46332H96.4752V4.77269H98.8556V0.0769778H103.696V11.7778H98.8556V9.39143ZM82.0342 11.7778H74.8137V9.46841H72.4333V0.153956H77.2735V9.46841H79.6539V0.153956H84.494V9.46841H82.1136V11.7778H82.0342Z" fill="white"/>
<path fill-rule="evenodd" clip-rule="evenodd" d="M57.5542 14.7222V12.3087H67.1333V14.7222H57.5542ZM43.1458 12.3087V9.89526H50.35V12.3087H43.1458ZM50.35 7.40134H52.725V9.81482H50.35V7.40134ZM45.6 4.98786H50.4292V7.40134H45.6V4.98786ZM43.1458 2.57438H45.5208V4.98786H43.1458V2.57438ZM52.8042 0.0804481V2.57438H45.6V0.0804481H52.8042ZM33.5667 9.81482V4.90741H35.9417V9.81482H33.5667ZM31.2708 12.3087V9.89526H33.5667V12.3087H31.2708ZM28.8167 4.98786H31.2708V9.89526H28.8167V4.98786ZM26.3625 0.0804481H28.7375V4.98786H26.3625V0.0804481ZM36.0208 0.0804481H38.3958V4.98786H36.0208V0.0804481ZM14.4083 0.0804481H21.6125V2.57438H16.8625V4.98786H21.6125V7.40134H16.8625V9.81482H21.6125V12.2283H14.4083V0.0804481ZM7.20417 2.57438H9.57917V9.89526H7.20417V2.57438ZM2.375 9.81482H7.20417V12.2283H0V0H7.20417V2.49393H2.375V9.81482Z" fill="#F50D5A"/>
</svg>
