<svg width="31" height="31" viewBox="0 0 31 31" fill="none" xmlns="http://www.w3.org/2000/svg">
<path d="M6.85615 18.5555L5.78091 22.5436L1.84844 22.6276C0.664472 20.4626 0 17.9857 0 15.3529C0 12.8041 0.622188 10.4052 1.72763 8.29419L5.23121 8.9299L6.76554 12.3843C6.44538 13.3139 6.2702 14.3094 6.2702 15.3529C6.2702 16.4804 6.47559 17.5599 6.85615 18.5555Z" fill="#FBBB00"/>
<path d="M30.6563 12.4862C30.8315 13.4158 30.9282 14.3753 30.9282 15.3529C30.9282 16.4504 30.8134 17.5239 30.5899 18.5614C29.8348 22.0818 27.8716 25.1524 25.1473 27.3294L20.7376 27.1075L20.1154 23.2393C21.9216 22.1837 23.3351 20.5405 24.0781 18.5674H15.8024V12.4862H24.1928H30.6563Z" fill="#518EF8"/>
<path d="M25.1473 27.3235C22.4954 29.4405 19.1308 30.706 15.4641 30.706C9.57445 30.706 4.45197 27.4375 1.84241 22.6277L6.85615 18.5555C8.16093 22.0159 11.5256 24.4808 15.4641 24.4808C17.1555 24.4808 18.7442 24.025 20.1094 23.2334L25.1473 27.3235Z" fill="#28B446"/>
<path d="M25.3345 3.53238L20.3268 7.6045C18.9194 6.72891 17.2522 6.22514 15.4641 6.22514C11.435 6.22514 8.00994 8.80395 6.76557 12.3843L1.72766 8.28819C4.30098 3.36445 9.48991 0 15.4641 0C19.2154 0 22.6585 1.32539 25.3345 3.53238Z" fill="#F14336"/>
</svg>
